<svg xmlns="http://www.w3.org/2000/svg" style="width: 100%; height: 100%;" viewBox="0 0 1313 1101" width="1313pt" height="1101pt" xmlns:xlink="http://www.w3.org/1999/xlink">
<g class="graph" id="graph0" transform="scale(1) rotate(0) translate(4 1097)">
<title>Tree</title>
<polygon fill="white" stroke="none" points="-4,4 -4,-1097 1309,-1097 1309,4 -4,4" />
<!-- 0 -->
<g class="node" id="node1"><title>0</title>
<polygon fill="none" stroke="black" points="871.5,-1093 767.5,-1093 767.5,-1025 871.5,-1025 871.5,-1093" />
<text font-family="Times New Roman,serif" font-size="14px" text-anchor="middle" x="819.5" y="-1077.8">X[0] &lt;= 0.5</text>
<text font-family="Times New Roman,serif" font-size="14px" text-anchor="middle" x="819.5" y="-1062.8">gini = 0.4444</text>
<text font-family="Times New Roman,serif" font-size="14px" text-anchor="middle" x="819.5" y="-1047.8">samples = 63</text>
<text font-family="Times New Roman,serif" font-size="14px" text-anchor="middle" x="819.5" y="-1032.8">value = [21, 42]</text>
</g>
<!-- 1 -->
<g class="node" id="node2"><title>1</title>
<polygon fill="none" stroke="black" points="805.5,-989 701.5,-989 701.5,-921 805.5,-921 805.5,-989" />
<text font-family="Times New Roman,serif" font-size="14px" text-anchor="middle" x="753.5" y="-973.8">X[1] &lt;= 58.5</text>
<text font-family="Times New Roman,serif" font-size="14px" text-anchor="middle" x="753.5" y="-958.8">gini = 0.48</text>
<text font-family="Times New Roman,serif" font-size="14px" text-anchor="middle" x="753.5" y="-943.8">samples = 30</text>
<text font-family="Times New Roman,serif" font-size="14px" text-anchor="middle" x="753.5" y="-928.8">value = [18, 12]</text>
</g>
<!-- 0&#45;&gt;1 -->
<g class="edge" id="edge1"><title>0-&gt;1</title>
<path fill="none" stroke="black" d="M 798.072 -1024.88 C 792.481 -1016.24 786.383 -1006.82 780.542 -997.793" />
<polygon fill="black" stroke="black" points="783.418,-995.794 775.047,-989.299 777.541,-999.596 783.418,-995.794" />
<text font-family="Times New Roman,serif" font-size="14px" text-anchor="middle" x="769.808" y="-1010.04">True</text>
</g>
<!-- 32 -->
<g class="node" id="node33"><title>32</title>
<polygon fill="none" stroke="black" points="934.5,-989 836.5,-989 836.5,-921 934.5,-921 934.5,-989" />
<text font-family="Times New Roman,serif" font-size="14px" text-anchor="middle" x="885.5" y="-973.8">X[1] &lt;= 21.5</text>
<text font-family="Times New Roman,serif" font-size="14px" text-anchor="middle" x="885.5" y="-958.8">gini = 0.1653</text>
<text font-family="Times New Roman,serif" font-size="14px" text-anchor="middle" x="885.5" y="-943.8">samples = 33</text>
<text font-family="Times New Roman,serif" font-size="14px" text-anchor="middle" x="885.5" y="-928.8">value = [3, 30]</text>
</g>
<!-- 0&#45;&gt;32 -->
<g class="edge" id="edge32"><title>0-&gt;32</title>
<path fill="none" stroke="black" d="M 840.928 -1024.88 C 846.519 -1016.24 852.617 -1006.82 858.458 -997.793" />
<polygon fill="black" stroke="black" points="861.459,-999.596 863.953,-989.299 855.582,-995.794 861.459,-999.596" />
<text font-family="Times New Roman,serif" font-size="14px" text-anchor="middle" x="869.192" y="-1010.04">False</text>
</g>
<!-- 2 -->
<g class="node" id="node3"><title>2</title>
<polygon fill="none" stroke="black" points="638.5,-885 534.5,-885 534.5,-817 638.5,-817 638.5,-885" />
<text font-family="Times New Roman,serif" font-size="14px" text-anchor="middle" x="586.5" y="-869.8">X[1] &lt;= 25.5</text>
<text font-family="Times New Roman,serif" font-size="14px" text-anchor="middle" x="586.5" y="-854.8">gini = 0.5</text>
<text font-family="Times New Roman,serif" font-size="14px" text-anchor="middle" x="586.5" y="-839.8">samples = 20</text>
<text font-family="Times New Roman,serif" font-size="14px" text-anchor="middle" x="586.5" y="-824.8">value = [10, 10]</text>
</g>
<!-- 1&#45;&gt;2 -->
<g class="edge" id="edge2"><title>1-&gt;2</title>
<path fill="none" stroke="black" d="M 701.118 -922.006 C 684.02 -911.563 664.89 -899.879 647.231 -889.093" />
<polygon fill="black" stroke="black" points="649.054,-886.106 638.696,-883.88 645.406,-892.079 649.054,-886.106" />
</g>
<!-- 27 -->
<g class="node" id="node28"><title>27</title>
<polygon fill="none" stroke="black" points="799,-885 708,-885 708,-817 799,-817 799,-885" />
<text font-family="Times New Roman,serif" font-size="14px" text-anchor="middle" x="753.5" y="-869.8">X[1] &lt;= 71.0</text>
<text font-family="Times New Roman,serif" font-size="14px" text-anchor="middle" x="753.5" y="-854.8">gini = 0.32</text>
<text font-family="Times New Roman,serif" font-size="14px" text-anchor="middle" x="753.5" y="-839.8">samples = 10</text>
<text font-family="Times New Roman,serif" font-size="14px" text-anchor="middle" x="753.5" y="-824.8">value = [8, 2]</text>
</g>
<!-- 1&#45;&gt;27 -->
<g class="edge" id="edge27"><title>1-&gt;27</title>
<path fill="none" stroke="black" d="M 753.5 -920.884 C 753.5 -912.778 753.5 -903.982 753.5 -895.472" />
<polygon fill="black" stroke="black" points="757,-895.299 753.5,-885.299 750,-895.299 757,-895.299" />
</g>
<!-- 3 -->
<g class="node" id="node4"><title>3</title>
<polygon fill="none" stroke="black" points="519,-773.5 428,-773.5 428,-720.5 519,-720.5 519,-773.5" />
<text font-family="Times New Roman,serif" font-size="14px" text-anchor="middle" x="473.5" y="-758.3">gini = 0.0</text>
<text font-family="Times New Roman,serif" font-size="14px" text-anchor="middle" x="473.5" y="-743.3">samples = 2</text>
<text font-family="Times New Roman,serif" font-size="14px" text-anchor="middle" x="473.5" y="-728.3">value = [2, 0]</text>
</g>
<!-- 2&#45;&gt;3 -->
<g class="edge" id="edge3"><title>2-&gt;3</title>
<path fill="none" stroke="black" d="M 549.812 -816.884 C 536.897 -805.226 522.401 -792.141 509.54 -780.532" />
<polygon fill="black" stroke="black" points="511.54,-777.622 501.772,-773.52 506.85,-782.819 511.54,-777.622" />
</g>
<!-- 4 -->
<g class="node" id="node5"><title>4</title>
<polygon fill="none" stroke="black" points="635.5,-781 537.5,-781 537.5,-713 635.5,-713 635.5,-781" />
<text font-family="Times New Roman,serif" font-size="14px" text-anchor="middle" x="586.5" y="-765.8">X[1] &lt;= 54.5</text>
<text font-family="Times New Roman,serif" font-size="14px" text-anchor="middle" x="586.5" y="-750.8">gini = 0.4938</text>
<text font-family="Times New Roman,serif" font-size="14px" text-anchor="middle" x="586.5" y="-735.8">samples = 18</text>
<text font-family="Times New Roman,serif" font-size="14px" text-anchor="middle" x="586.5" y="-720.8">value = [8, 10]</text>
</g>
<!-- 2&#45;&gt;4 -->
<g class="edge" id="edge4"><title>2-&gt;4</title>
<path fill="none" stroke="black" d="M 586.5 -816.884 C 586.5 -808.778 586.5 -799.982 586.5 -791.472" />
<polygon fill="black" stroke="black" points="590,-791.299 586.5,-781.299 583,-791.299 590,-791.299" />
</g>
<!-- 5 -->
<g class="node" id="node6"><title>5</title>
<polygon fill="none" stroke="black" points="525,-677 434,-677 434,-609 525,-609 525,-677" />
<text font-family="Times New Roman,serif" font-size="14px" text-anchor="middle" x="479.5" y="-661.8">X[1] &lt;= 50.5</text>
<text font-family="Times New Roman,serif" font-size="14px" text-anchor="middle" x="479.5" y="-646.8">gini = 0.5</text>
<text font-family="Times New Roman,serif" font-size="14px" text-anchor="middle" x="479.5" y="-631.8">samples = 16</text>
<text font-family="Times New Roman,serif" font-size="14px" text-anchor="middle" x="479.5" y="-616.8">value = [8, 8]</text>
</g>
<!-- 4&#45;&gt;5 -->
<g class="edge" id="edge5"><title>4-&gt;5</title>
<path fill="none" stroke="black" d="M 551.76 -712.884 C 542.229 -703.798 531.789 -693.845 521.881 -684.4" />
<polygon fill="black" stroke="black" points="524.085,-681.666 514.432,-677.299 519.255,-686.733 524.085,-681.666" />
</g>
<!-- 26 -->
<g class="node" id="node27"><title>26</title>
<polygon fill="none" stroke="black" points="634,-669.5 543,-669.5 543,-616.5 634,-616.5 634,-669.5" />
<text font-family="Times New Roman,serif" font-size="14px" text-anchor="middle" x="588.5" y="-654.3">gini = 0.0</text>
<text font-family="Times New Roman,serif" font-size="14px" text-anchor="middle" x="588.5" y="-639.3">samples = 2</text>
<text font-family="Times New Roman,serif" font-size="14px" text-anchor="middle" x="588.5" y="-624.3">value = [0, 2]</text>
</g>
<!-- 4&#45;&gt;26 -->
<g class="edge" id="edge26"><title>4-&gt;26</title>
<path fill="none" stroke="black" d="M 587.149 -712.884 C 587.359 -702.216 587.591 -690.352 587.804 -679.519" />
<polygon fill="black" stroke="black" points="591.303,-679.587 588,-669.52 584.304,-679.449 591.303,-679.587" />
</g>
<!-- 6 -->
<g class="node" id="node7"><title>6</title>
<polygon fill="none" stroke="black" points="471,-573 380,-573 380,-505 471,-505 471,-573" />
<text font-family="Times New Roman,serif" font-size="14px" text-anchor="middle" x="425.5" y="-557.8">X[1] &lt;= 45.5</text>
<text font-family="Times New Roman,serif" font-size="14px" text-anchor="middle" x="425.5" y="-542.8">gini = 0.4628</text>
<text font-family="Times New Roman,serif" font-size="14px" text-anchor="middle" x="425.5" y="-527.8">samples = 11</text>
<text font-family="Times New Roman,serif" font-size="14px" text-anchor="middle" x="425.5" y="-512.8">value = [4, 7]</text>
</g>
<!-- 5&#45;&gt;6 -->
<g class="edge" id="edge6"><title>5-&gt;6</title>
<path fill="none" stroke="black" d="M 461.968 -608.884 C 457.488 -600.422 452.61 -591.207 447.921 -582.352" />
<polygon fill="black" stroke="black" points="450.901,-580.5 443.129,-573.299 444.715,-583.775 450.901,-580.5" />
</g>
<!-- 21 -->
<g class="node" id="node22"><title>21</title>
<polygon fill="none" stroke="black" points="580,-573 489,-573 489,-505 580,-505 580,-573" />
<text font-family="Times New Roman,serif" font-size="14px" text-anchor="middle" x="534.5" y="-557.8">X[1] &lt;= 52.0</text>
<text font-family="Times New Roman,serif" font-size="14px" text-anchor="middle" x="534.5" y="-542.8">gini = 0.32</text>
<text font-family="Times New Roman,serif" font-size="14px" text-anchor="middle" x="534.5" y="-527.8">samples = 5</text>
<text font-family="Times New Roman,serif" font-size="14px" text-anchor="middle" x="534.5" y="-512.8">value = [4, 1]</text>
</g>
<!-- 5&#45;&gt;21 -->
<g class="edge" id="edge21"><title>5-&gt;21</title>
<path fill="none" stroke="black" d="M 497.357 -608.884 C 501.92 -600.422 506.888 -591.207 511.663 -582.352" />
<polygon fill="black" stroke="black" points="514.879,-583.762 516.544,-573.299 508.718,-580.44 514.879,-583.762" />
</g>
<!-- 7 -->
<g class="node" id="node8"><title>7</title>
<polygon fill="none" stroke="black" points="362,-469 271,-469 271,-401 362,-401 362,-469" />
<text font-family="Times New Roman,serif" font-size="14px" text-anchor="middle" x="316.5" y="-453.8">X[1] &lt;= 43.5</text>
<text font-family="Times New Roman,serif" font-size="14px" text-anchor="middle" x="316.5" y="-438.8">gini = 0.5</text>
<text font-family="Times New Roman,serif" font-size="14px" text-anchor="middle" x="316.5" y="-423.8">samples = 6</text>
<text font-family="Times New Roman,serif" font-size="14px" text-anchor="middle" x="316.5" y="-408.8">value = [3, 3]</text>
</g>
<!-- 6&#45;&gt;7 -->
<g class="edge" id="edge7"><title>6-&gt;7</title>
<path fill="none" stroke="black" d="M 390.111 -504.884 C 380.402 -495.798 369.766 -485.845 359.673 -476.4" />
<polygon fill="black" stroke="black" points="361.778,-473.577 352.085,-469.299 356.995,-478.688 361.778,-473.577" />
</g>
<!-- 16 -->
<g class="node" id="node17"><title>16</title>
<polygon fill="none" stroke="black" points="471,-469 380,-469 380,-401 471,-401 471,-469" />
<text font-family="Times New Roman,serif" font-size="14px" text-anchor="middle" x="425.5" y="-453.8">X[1] &lt;= 48.5</text>
<text font-family="Times New Roman,serif" font-size="14px" text-anchor="middle" x="425.5" y="-438.8">gini = 0.32</text>
<text font-family="Times New Roman,serif" font-size="14px" text-anchor="middle" x="425.5" y="-423.8">samples = 5</text>
<text font-family="Times New Roman,serif" font-size="14px" text-anchor="middle" x="425.5" y="-408.8">value = [1, 4]</text>
</g>
<!-- 6&#45;&gt;16 -->
<g class="edge" id="edge16"><title>6-&gt;16</title>
<path fill="none" stroke="black" d="M 425.5 -504.884 C 425.5 -496.778 425.5 -487.982 425.5 -479.472" />
<polygon fill="black" stroke="black" points="429,-479.299 425.5,-469.299 422,-479.299 429,-479.299" />
</g>
<!-- 8 -->
<g class="node" id="node9"><title>8</title>
<polygon fill="none" stroke="black" points="253,-365 162,-365 162,-297 253,-297 253,-365" />
<text font-family="Times New Roman,serif" font-size="14px" text-anchor="middle" x="207.5" y="-349.8">X[1] &lt;= 39.0</text>
<text font-family="Times New Roman,serif" font-size="14px" text-anchor="middle" x="207.5" y="-334.8">gini = 0.48</text>
<text font-family="Times New Roman,serif" font-size="14px" text-anchor="middle" x="207.5" y="-319.8">samples = 5</text>
<text font-family="Times New Roman,serif" font-size="14px" text-anchor="middle" x="207.5" y="-304.8">value = [2, 3]</text>
</g>
<!-- 7&#45;&gt;8 -->
<g class="edge" id="edge8"><title>7-&gt;8</title>
<path fill="none" stroke="black" d="M 281.111 -400.884 C 271.402 -391.798 260.766 -381.845 250.673 -372.4" />
<polygon fill="black" stroke="black" points="252.778,-369.577 243.085,-365.299 247.995,-374.688 252.778,-369.577" />
</g>
<!-- 15 -->
<g class="node" id="node16"><title>15</title>
<polygon fill="none" stroke="black" points="362,-357.5 271,-357.5 271,-304.5 362,-304.5 362,-357.5" />
<text font-family="Times New Roman,serif" font-size="14px" text-anchor="middle" x="316.5" y="-342.3">gini = 0.0</text>
<text font-family="Times New Roman,serif" font-size="14px" text-anchor="middle" x="316.5" y="-327.3">samples = 1</text>
<text font-family="Times New Roman,serif" font-size="14px" text-anchor="middle" x="316.5" y="-312.3">value = [1, 0]</text>
</g>
<!-- 7&#45;&gt;15 -->
<g class="edge" id="edge15"><title>7-&gt;15</title>
<path fill="none" stroke="black" d="M 316.5 -400.884 C 316.5 -390.326 316.5 -378.597 316.5 -367.854" />
<polygon fill="black" stroke="black" points="320,-367.52 316.5,-357.52 313,-367.52 320,-367.52" />
</g>
<!-- 9 -->
<g class="node" id="node10"><title>9</title>
<polygon fill="none" stroke="black" points="199,-261 108,-261 108,-193 199,-193 199,-261" />
<text font-family="Times New Roman,serif" font-size="14px" text-anchor="middle" x="153.5" y="-245.8">X[1] &lt;= 31.0</text>
<text font-family="Times New Roman,serif" font-size="14px" text-anchor="middle" x="153.5" y="-230.8">gini = 0.5</text>
<text font-family="Times New Roman,serif" font-size="14px" text-anchor="middle" x="153.5" y="-215.8">samples = 4</text>
<text font-family="Times New Roman,serif" font-size="14px" text-anchor="middle" x="153.5" y="-200.8">value = [2, 2]</text>
</g>
<!-- 8&#45;&gt;9 -->
<g class="edge" id="edge9"><title>8-&gt;9</title>
<path fill="none" stroke="black" d="M 189.968 -296.884 C 185.488 -288.422 180.61 -279.207 175.921 -270.352" />
<polygon fill="black" stroke="black" points="178.901,-268.5 171.129,-261.299 172.715,-271.775 178.901,-268.5" />
</g>
<!-- 14 -->
<g class="node" id="node15"><title>14</title>
<polygon fill="none" stroke="black" points="308,-253.5 217,-253.5 217,-200.5 308,-200.5 308,-253.5" />
<text font-family="Times New Roman,serif" font-size="14px" text-anchor="middle" x="262.5" y="-238.3">gini = 0.0</text>
<text font-family="Times New Roman,serif" font-size="14px" text-anchor="middle" x="262.5" y="-223.3">samples = 1</text>
<text font-family="Times New Roman,serif" font-size="14px" text-anchor="middle" x="262.5" y="-208.3">value = [0, 1]</text>
</g>
<!-- 8&#45;&gt;14 -->
<g class="edge" id="edge14"><title>8-&gt;14</title>
<path fill="none" stroke="black" d="M 225.357 -296.884 C 231.287 -285.886 237.902 -273.617 243.888 -262.517" />
<polygon fill="black" stroke="black" points="247.074,-263.983 248.739,-253.52 240.912,-260.661 247.074,-263.983" />
</g>
<!-- 10 -->
<g class="node" id="node11"><title>10</title>
<polygon fill="none" stroke="black" points="145,-157 54,-157 54,-89 145,-89 145,-157" />
<text font-family="Times New Roman,serif" font-size="14px" text-anchor="middle" x="99.5" y="-141.8">X[1] &lt;= 26.5</text>
<text font-family="Times New Roman,serif" font-size="14px" text-anchor="middle" x="99.5" y="-126.8">gini = 0.4444</text>
<text font-family="Times New Roman,serif" font-size="14px" text-anchor="middle" x="99.5" y="-111.8">samples = 3</text>
<text font-family="Times New Roman,serif" font-size="14px" text-anchor="middle" x="99.5" y="-96.8">value = [1, 2]</text>
</g>
<!-- 9&#45;&gt;10 -->
<g class="edge" id="edge10"><title>9-&gt;10</title>
<path fill="none" stroke="black" d="M 135.968 -192.884 C 131.488 -184.422 126.61 -175.207 121.921 -166.352" />
<polygon fill="black" stroke="black" points="124.901,-164.5 117.129,-157.299 118.715,-167.775 124.901,-164.5" />
</g>
<!-- 13 -->
<g class="node" id="node14"><title>13</title>
<polygon fill="none" stroke="black" points="254,-149.5 163,-149.5 163,-96.5 254,-96.5 254,-149.5" />
<text font-family="Times New Roman,serif" font-size="14px" text-anchor="middle" x="208.5" y="-134.3">gini = 0.0</text>
<text font-family="Times New Roman,serif" font-size="14px" text-anchor="middle" x="208.5" y="-119.3">samples = 1</text>
<text font-family="Times New Roman,serif" font-size="14px" text-anchor="middle" x="208.5" y="-104.3">value = [1, 0]</text>
</g>
<!-- 9&#45;&gt;13 -->
<g class="edge" id="edge13"><title>9-&gt;13</title>
<path fill="none" stroke="black" d="M 171.357 -192.884 C 177.287 -181.886 183.902 -169.617 189.888 -158.517" />
<polygon fill="black" stroke="black" points="193.074,-159.983 194.739,-149.52 186.912,-156.661 193.074,-159.983" />
</g>
<!-- 11 -->
<g class="node" id="node12"><title>11</title>
<polygon fill="none" stroke="black" points="91,-53 0,-53 0,0 91,0 91,-53" />
<text font-family="Times New Roman,serif" font-size="14px" text-anchor="middle" x="45.5" y="-37.8">gini = 0.5</text>
<text font-family="Times New Roman,serif" font-size="14px" text-anchor="middle" x="45.5" y="-22.8">samples = 2</text>
<text font-family="Times New Roman,serif" font-size="14px" text-anchor="middle" x="45.5" y="-7.8">value = [1, 1]</text>
</g>
<!-- 10&#45;&gt;11 -->
<g class="edge" id="edge11"><title>10-&gt;11</title>
<path fill="none" stroke="black" d="M 80.6134 -88.9485 C 75.6474 -80.2579 70.2776 -70.8608 65.2667 -62.0917" />
<polygon fill="black" stroke="black" points="68.207,-60.1826 60.2067,-53.2367 62.1293,-63.6557 68.207,-60.1826" />
</g>
<!-- 12 -->
<g class="node" id="node13"><title>12</title>
<polygon fill="none" stroke="black" points="200,-53 109,-53 109,0 200,0 200,-53" />
<text font-family="Times New Roman,serif" font-size="14px" text-anchor="middle" x="154.5" y="-37.8">gini = 0.0</text>
<text font-family="Times New Roman,serif" font-size="14px" text-anchor="middle" x="154.5" y="-22.8">samples = 1</text>
<text font-family="Times New Roman,serif" font-size="14px" text-anchor="middle" x="154.5" y="-7.8">value = [0, 1]</text>
</g>
<!-- 10&#45;&gt;12 -->
<g class="edge" id="edge12"><title>10-&gt;12</title>
<path fill="none" stroke="black" d="M 118.736 -88.9485 C 123.794 -80.2579 129.264 -70.8608 134.367 -62.0917" />
<polygon fill="black" stroke="black" points="137.516,-63.6401 139.521,-53.2367 131.466,-60.1189 137.516,-63.6401" />
</g>
<!-- 17 -->
<g class="node" id="node18"><title>17</title>
<polygon fill="none" stroke="black" points="471,-357.5 380,-357.5 380,-304.5 471,-304.5 471,-357.5" />
<text font-family="Times New Roman,serif" font-size="14px" text-anchor="middle" x="425.5" y="-342.3">gini = 0.0</text>
<text font-family="Times New Roman,serif" font-size="14px" text-anchor="middle" x="425.5" y="-327.3">samples = 2</text>
<text font-family="Times New Roman,serif" font-size="14px" text-anchor="middle" x="425.5" y="-312.3">value = [0, 2]</text>
</g>
<!-- 16&#45;&gt;17 -->
<g class="edge" id="edge17"><title>16-&gt;17</title>
<path fill="none" stroke="black" d="M 425.5 -400.884 C 425.5 -390.326 425.5 -378.597 425.5 -367.854" />
<polygon fill="black" stroke="black" points="429,-367.52 425.5,-357.52 422,-367.52 429,-367.52" />
</g>
<!-- 18 -->
<g class="node" id="node19"><title>18</title>
<polygon fill="none" stroke="black" points="580,-365 489,-365 489,-297 580,-297 580,-365" />
<text font-family="Times New Roman,serif" font-size="14px" text-anchor="middle" x="534.5" y="-349.8">X[1] &lt;= 49.5</text>
<text font-family="Times New Roman,serif" font-size="14px" text-anchor="middle" x="534.5" y="-334.8">gini = 0.4444</text>
<text font-family="Times New Roman,serif" font-size="14px" text-anchor="middle" x="534.5" y="-319.8">samples = 3</text>
<text font-family="Times New Roman,serif" font-size="14px" text-anchor="middle" x="534.5" y="-304.8">value = [1, 2]</text>
</g>
<!-- 16&#45;&gt;18 -->
<g class="edge" id="edge18"><title>16-&gt;18</title>
<path fill="none" stroke="black" d="M 460.889 -400.884 C 470.598 -391.798 481.234 -381.845 491.327 -372.4" />
<polygon fill="black" stroke="black" points="494.005,-374.688 498.915,-365.299 489.222,-369.577 494.005,-374.688" />
</g>
<!-- 19 -->
<g class="node" id="node20"><title>19</title>
<polygon fill="none" stroke="black" points="471,-253.5 380,-253.5 380,-200.5 471,-200.5 471,-253.5" />
<text font-family="Times New Roman,serif" font-size="14px" text-anchor="middle" x="425.5" y="-238.3">gini = 0.5</text>
<text font-family="Times New Roman,serif" font-size="14px" text-anchor="middle" x="425.5" y="-223.3">samples = 2</text>
<text font-family="Times New Roman,serif" font-size="14px" text-anchor="middle" x="425.5" y="-208.3">value = [1, 1]</text>
</g>
<!-- 18&#45;&gt;19 -->
<g class="edge" id="edge19"><title>18-&gt;19</title>
<path fill="none" stroke="black" d="M 499.111 -296.884 C 486.653 -285.226 472.67 -272.141 460.264 -260.532" />
<polygon fill="black" stroke="black" points="462.464,-257.797 452.771,-253.52 457.681,-262.908 462.464,-257.797" />
</g>
<!-- 20 -->
<g class="node" id="node21"><title>20</title>
<polygon fill="none" stroke="black" points="580,-253.5 489,-253.5 489,-200.5 580,-200.5 580,-253.5" />
<text font-family="Times New Roman,serif" font-size="14px" text-anchor="middle" x="534.5" y="-238.3">gini = 0.0</text>
<text font-family="Times New Roman,serif" font-size="14px" text-anchor="middle" x="534.5" y="-223.3">samples = 1</text>
<text font-family="Times New Roman,serif" font-size="14px" text-anchor="middle" x="534.5" y="-208.3">value = [0, 1]</text>
</g>
<!-- 18&#45;&gt;20 -->
<g class="edge" id="edge20"><title>18-&gt;20</title>
<path fill="none" stroke="black" d="M 534.5 -296.884 C 534.5 -286.326 534.5 -274.597 534.5 -263.854" />
<polygon fill="black" stroke="black" points="538,-263.52 534.5,-253.52 531,-263.52 538,-263.52" />
</g>
<!-- 22 -->
<g class="node" id="node23"><title>22</title>
<polygon fill="none" stroke="black" points="580,-461.5 489,-461.5 489,-408.5 580,-408.5 580,-461.5" />
<text font-family="Times New Roman,serif" font-size="14px" text-anchor="middle" x="534.5" y="-446.3">gini = 0.0</text>
<text font-family="Times New Roman,serif" font-size="14px" text-anchor="middle" x="534.5" y="-431.3">samples = 1</text>
<text font-family="Times New Roman,serif" font-size="14px" text-anchor="middle" x="534.5" y="-416.3">value = [1, 0]</text>
</g>
<!-- 21&#45;&gt;22 -->
<g class="edge" id="edge22"><title>21-&gt;22</title>
<path fill="none" stroke="black" d="M 534.5 -504.884 C 534.5 -494.326 534.5 -482.597 534.5 -471.854" />
<polygon fill="black" stroke="black" points="538,-471.52 534.5,-461.52 531,-471.52 538,-471.52" />
</g>
<!-- 23 -->
<g class="node" id="node24"><title>23</title>
<polygon fill="none" stroke="black" points="689,-469 598,-469 598,-401 689,-401 689,-469" />
<text font-family="Times New Roman,serif" font-size="14px" text-anchor="middle" x="643.5" y="-453.8">X[1] &lt;= 53.5</text>
<text font-family="Times New Roman,serif" font-size="14px" text-anchor="middle" x="643.5" y="-438.8">gini = 0.375</text>
<text font-family="Times New Roman,serif" font-size="14px" text-anchor="middle" x="643.5" y="-423.8">samples = 4</text>
<text font-family="Times New Roman,serif" font-size="14px" text-anchor="middle" x="643.5" y="-408.8">value = [3, 1]</text>
</g>
<!-- 21&#45;&gt;23 -->
<g class="edge" id="edge23"><title>21-&gt;23</title>
<path fill="none" stroke="black" d="M 569.889 -504.884 C 579.598 -495.798 590.234 -485.845 600.327 -476.4" />
<polygon fill="black" stroke="black" points="603.005,-478.688 607.915,-469.299 598.222,-473.577 603.005,-478.688" />
</g>
<!-- 24 -->
<g class="node" id="node25"><title>24</title>
<polygon fill="none" stroke="black" points="689,-357.5 598,-357.5 598,-304.5 689,-304.5 689,-357.5" />
<text font-family="Times New Roman,serif" font-size="14px" text-anchor="middle" x="643.5" y="-342.3">gini = 0.4444</text>
<text font-family="Times New Roman,serif" font-size="14px" text-anchor="middle" x="643.5" y="-327.3">samples = 3</text>
<text font-family="Times New Roman,serif" font-size="14px" text-anchor="middle" x="643.5" y="-312.3">value = [2, 1]</text>
</g>
<!-- 23&#45;&gt;24 -->
<g class="edge" id="edge24"><title>23-&gt;24</title>
<path fill="none" stroke="black" d="M 643.5 -400.884 C 643.5 -390.326 643.5 -378.597 643.5 -367.854" />
<polygon fill="black" stroke="black" points="647,-367.52 643.5,-357.52 640,-367.52 647,-367.52" />
</g>
<!-- 25 -->
<g class="node" id="node26"><title>25</title>
<polygon fill="none" stroke="black" points="798,-357.5 707,-357.5 707,-304.5 798,-304.5 798,-357.5" />
<text font-family="Times New Roman,serif" font-size="14px" text-anchor="middle" x="752.5" y="-342.3">gini = 0.0</text>
<text font-family="Times New Roman,serif" font-size="14px" text-anchor="middle" x="752.5" y="-327.3">samples = 1</text>
<text font-family="Times New Roman,serif" font-size="14px" text-anchor="middle" x="752.5" y="-312.3">value = [1, 0]</text>
</g>
<!-- 23&#45;&gt;25 -->
<g class="edge" id="edge25"><title>23-&gt;25</title>
<path fill="none" stroke="black" d="M 678.889 -400.884 C 691.347 -389.226 705.33 -376.141 717.736 -364.532" />
<polygon fill="black" stroke="black" points="720.319,-366.908 725.229,-357.52 715.536,-361.797 720.319,-366.908" />
</g>
<!-- 28 -->
<g class="node" id="node29"><title>28</title>
<polygon fill="none" stroke="black" points="745,-773.5 654,-773.5 654,-720.5 745,-720.5 745,-773.5" />
<text font-family="Times New Roman,serif" font-size="14px" text-anchor="middle" x="699.5" y="-758.3">gini = 0.0</text>
<text font-family="Times New Roman,serif" font-size="14px" text-anchor="middle" x="699.5" y="-743.3">samples = 6</text>
<text font-family="Times New Roman,serif" font-size="14px" text-anchor="middle" x="699.5" y="-728.3">value = [6, 0]</text>
</g>
<!-- 27&#45;&gt;28 -->
<g class="edge" id="edge28"><title>27-&gt;28</title>
<path fill="none" stroke="black" d="M 735.968 -816.884 C 730.145 -805.886 723.65 -793.617 717.773 -782.517" />
<polygon fill="black" stroke="black" points="720.783,-780.72 713.011,-773.52 714.596,-783.995 720.783,-780.72" />
</g>
<!-- 29 -->
<g class="node" id="node30"><title>29</title>
<polygon fill="none" stroke="black" points="854,-781 763,-781 763,-713 854,-713 854,-781" />
<text font-family="Times New Roman,serif" font-size="14px" text-anchor="middle" x="808.5" y="-765.8">X[1] &lt;= 77.5</text>
<text font-family="Times New Roman,serif" font-size="14px" text-anchor="middle" x="808.5" y="-750.8">gini = 0.5</text>
<text font-family="Times New Roman,serif" font-size="14px" text-anchor="middle" x="808.5" y="-735.8">samples = 4</text>
<text font-family="Times New Roman,serif" font-size="14px" text-anchor="middle" x="808.5" y="-720.8">value = [2, 2]</text>
</g>
<!-- 27&#45;&gt;29 -->
<g class="edge" id="edge29"><title>27-&gt;29</title>
<path fill="none" stroke="black" d="M 771.357 -816.884 C 775.92 -808.422 780.888 -799.207 785.663 -790.352" />
<polygon fill="black" stroke="black" points="788.879,-791.762 790.544,-781.299 782.718,-788.44 788.879,-791.762" />
</g>
<!-- 30 -->
<g class="node" id="node31"><title>30</title>
<polygon fill="none" stroke="black" points="745,-669.5 654,-669.5 654,-616.5 745,-616.5 745,-669.5" />
<text font-family="Times New Roman,serif" font-size="14px" text-anchor="middle" x="699.5" y="-654.3">gini = 0.0</text>
<text font-family="Times New Roman,serif" font-size="14px" text-anchor="middle" x="699.5" y="-639.3">samples = 2</text>
<text font-family="Times New Roman,serif" font-size="14px" text-anchor="middle" x="699.5" y="-624.3">value = [0, 2]</text>
</g>
<!-- 29&#45;&gt;30 -->
<g class="edge" id="edge30"><title>29-&gt;30</title>
<path fill="none" stroke="black" d="M 773.111 -712.884 C 760.653 -701.226 746.67 -688.141 734.264 -676.532" />
<polygon fill="black" stroke="black" points="736.464,-673.797 726.771,-669.52 731.681,-678.908 736.464,-673.797" />
</g>
<!-- 31 -->
<g class="node" id="node32"><title>31</title>
<polygon fill="none" stroke="black" points="854,-669.5 763,-669.5 763,-616.5 854,-616.5 854,-669.5" />
<text font-family="Times New Roman,serif" font-size="14px" text-anchor="middle" x="808.5" y="-654.3">gini = 0.0</text>
<text font-family="Times New Roman,serif" font-size="14px" text-anchor="middle" x="808.5" y="-639.3">samples = 2</text>
<text font-family="Times New Roman,serif" font-size="14px" text-anchor="middle" x="808.5" y="-624.3">value = [2, 0]</text>
</g>
<!-- 29&#45;&gt;31 -->
<g class="edge" id="edge31"><title>29-&gt;31</title>
<path fill="none" stroke="black" d="M 808.5 -712.884 C 808.5 -702.326 808.5 -690.597 808.5 -679.854" />
<polygon fill="black" stroke="black" points="812,-679.52 808.5,-669.52 805,-679.52 812,-679.52" />
</g>
<!-- 33 -->
<g class="node" id="node34"><title>33</title>
<polygon fill="none" stroke="black" points="931,-877.5 840,-877.5 840,-824.5 931,-824.5 931,-877.5" />
<text font-family="Times New Roman,serif" font-size="14px" text-anchor="middle" x="885.5" y="-862.3">gini = 0.5</text>
<text font-family="Times New Roman,serif" font-size="14px" text-anchor="middle" x="885.5" y="-847.3">samples = 2</text>
<text font-family="Times New Roman,serif" font-size="14px" text-anchor="middle" x="885.5" y="-832.3">value = [1, 1]</text>
</g>
<!-- 32&#45;&gt;33 -->
<g class="edge" id="edge33"><title>32-&gt;33</title>
<path fill="none" stroke="black" d="M 885.5 -920.884 C 885.5 -910.326 885.5 -898.597 885.5 -887.854" />
<polygon fill="black" stroke="black" points="889,-887.52 885.5,-877.52 882,-887.52 889,-887.52" />
</g>
<!-- 34 -->
<g class="node" id="node35"><title>34</title>
<polygon fill="none" stroke="black" points="1073.5,-885 975.5,-885 975.5,-817 1073.5,-817 1073.5,-885" />
<text font-family="Times New Roman,serif" font-size="14px" text-anchor="middle" x="1024.5" y="-869.8">X[1] &lt;= 68.5</text>
<text font-family="Times New Roman,serif" font-size="14px" text-anchor="middle" x="1024.5" y="-854.8">gini = 0.1207</text>
<text font-family="Times New Roman,serif" font-size="14px" text-anchor="middle" x="1024.5" y="-839.8">samples = 31</text>
<text font-family="Times New Roman,serif" font-size="14px" text-anchor="middle" x="1024.5" y="-824.8">value = [2, 29]</text>
</g>
<!-- 32&#45;&gt;34 -->
<g class="edge" id="edge34"><title>32-&gt;34</title>
<path fill="none" stroke="black" d="M 930.629 -920.884 C 943.496 -911.442 957.639 -901.064 970.956 -891.292" />
<polygon fill="black" stroke="black" points="973.13,-894.037 979.121,-885.299 968.989,-888.394 973.13,-894.037" />
</g>
<!-- 35 -->
<g class="node" id="node36"><title>35</title>
<polygon fill="none" stroke="black" points="1073.5,-781 975.5,-781 975.5,-713 1073.5,-713 1073.5,-781" />
<text font-family="Times New Roman,serif" font-size="14px" text-anchor="middle" x="1024.5" y="-765.8">X[1] &lt;= 51.5</text>
<text font-family="Times New Roman,serif" font-size="14px" text-anchor="middle" x="1024.5" y="-750.8">gini = 0.0666</text>
<text font-family="Times New Roman,serif" font-size="14px" text-anchor="middle" x="1024.5" y="-735.8">samples = 29</text>
<text font-family="Times New Roman,serif" font-size="14px" text-anchor="middle" x="1024.5" y="-720.8">value = [1, 28]</text>
</g>
<!-- 34&#45;&gt;35 -->
<g class="edge" id="edge35"><title>34-&gt;35</title>
<path fill="none" stroke="black" d="M 1024.5 -816.884 C 1024.5 -808.778 1024.5 -799.982 1024.5 -791.472" />
<polygon fill="black" stroke="black" points="1028,-791.299 1024.5,-781.299 1021,-791.299 1028,-791.299" />
</g>
<!-- 40 -->
<g class="node" id="node41"><title>40</title>
<polygon fill="none" stroke="black" points="1196,-781 1105,-781 1105,-713 1196,-713 1196,-781" />
<text font-family="Times New Roman,serif" font-size="14px" text-anchor="middle" x="1150.5" y="-765.8">X[1] &lt;= 75.0</text>
<text font-family="Times New Roman,serif" font-size="14px" text-anchor="middle" x="1150.5" y="-750.8">gini = 0.5</text>
<text font-family="Times New Roman,serif" font-size="14px" text-anchor="middle" x="1150.5" y="-735.8">samples = 2</text>
<text font-family="Times New Roman,serif" font-size="14px" text-anchor="middle" x="1150.5" y="-720.8">value = [1, 1]</text>
</g>
<!-- 34&#45;&gt;40 -->
<g class="edge" id="edge40"><title>34-&gt;40</title>
<path fill="none" stroke="black" d="M 1065.41 -816.884 C 1076.85 -807.62 1089.41 -797.455 1101.28 -787.845" />
<polygon fill="black" stroke="black" points="1103.8,-790.312 1109.37,-781.299 1099.39,-784.871 1103.8,-790.312" />
</g>
<!-- 36 -->
<g class="node" id="node37"><title>36</title>
<polygon fill="none" stroke="black" points="970.5,-669.5 872.5,-669.5 872.5,-616.5 970.5,-616.5 970.5,-669.5" />
<text font-family="Times New Roman,serif" font-size="14px" text-anchor="middle" x="921.5" y="-654.3">gini = 0.0</text>
<text font-family="Times New Roman,serif" font-size="14px" text-anchor="middle" x="921.5" y="-639.3">samples = 17</text>
<text font-family="Times New Roman,serif" font-size="14px" text-anchor="middle" x="921.5" y="-624.3">value = [0, 17]</text>
</g>
<!-- 35&#45;&gt;36 -->
<g class="edge" id="edge36"><title>35-&gt;36</title>
<path fill="none" stroke="black" d="M 991.059 -712.884 C 979.398 -701.336 966.323 -688.387 954.683 -676.86" />
<polygon fill="black" stroke="black" points="956.838,-674.07 947.27,-669.52 951.913,-679.043 956.838,-674.07" />
</g>
<!-- 37 -->
<g class="node" id="node38"><title>37</title>
<polygon fill="none" stroke="black" points="1086.5,-677 988.5,-677 988.5,-609 1086.5,-609 1086.5,-677" />
<text font-family="Times New Roman,serif" font-size="14px" text-anchor="middle" x="1037.5" y="-661.8">X[1] &lt;= 52.5</text>
<text font-family="Times New Roman,serif" font-size="14px" text-anchor="middle" x="1037.5" y="-646.8">gini = 0.1528</text>
<text font-family="Times New Roman,serif" font-size="14px" text-anchor="middle" x="1037.5" y="-631.8">samples = 12</text>
<text font-family="Times New Roman,serif" font-size="14px" text-anchor="middle" x="1037.5" y="-616.8">value = [1, 11]</text>
</g>
<!-- 35&#45;&gt;37 -->
<g class="edge" id="edge37"><title>35-&gt;37</title>
<path fill="none" stroke="black" d="M 1028.72 -712.884 C 1029.75 -704.778 1030.87 -695.982 1031.96 -687.472" />
<polygon fill="black" stroke="black" points="1035.46,-687.662 1033.26,-677.299 1028.52,-686.777 1035.46,-687.662" />
</g>
<!-- 38 -->
<g class="node" id="node39"><title>38</title>
<polygon fill="none" stroke="black" points="1026,-565.5 935,-565.5 935,-512.5 1026,-512.5 1026,-565.5" />
<text font-family="Times New Roman,serif" font-size="14px" text-anchor="middle" x="980.5" y="-550.3">gini = 0.0</text>
<text font-family="Times New Roman,serif" font-size="14px" text-anchor="middle" x="980.5" y="-535.3">samples = 1</text>
<text font-family="Times New Roman,serif" font-size="14px" text-anchor="middle" x="980.5" y="-520.3">value = [1, 0]</text>
</g>
<!-- 37&#45;&gt;38 -->
<g class="edge" id="edge38"><title>37-&gt;38</title>
<path fill="none" stroke="black" d="M 1018.99 -608.884 C 1012.85 -597.886 1005.99 -585.617 999.789 -574.517" />
<polygon fill="black" stroke="black" points="1002.69,-572.542 994.761,-565.52 996.584,-575.957 1002.69,-572.542" />
</g>
<!-- 39 -->
<g class="node" id="node40"><title>39</title>
<polygon fill="none" stroke="black" points="1142.5,-565.5 1044.5,-565.5 1044.5,-512.5 1142.5,-512.5 1142.5,-565.5" />
<text font-family="Times New Roman,serif" font-size="14px" text-anchor="middle" x="1093.5" y="-550.3">gini = 0.0</text>
<text font-family="Times New Roman,serif" font-size="14px" text-anchor="middle" x="1093.5" y="-535.3">samples = 11</text>
<text font-family="Times New Roman,serif" font-size="14px" text-anchor="middle" x="1093.5" y="-520.3">value = [0, 11]</text>
</g>
<!-- 37&#45;&gt;39 -->
<g class="edge" id="edge39"><title>37-&gt;39</title>
<path fill="none" stroke="black" d="M 1055.68 -608.884 C 1061.72 -597.886 1068.46 -585.617 1074.55 -574.517" />
<polygon fill="black" stroke="black" points="1077.74,-575.97 1079.49,-565.52 1071.61,-572.601 1077.74,-575.97" />
</g>
<!-- 41 -->
<g class="node" id="node42"><title>41</title>
<polygon fill="none" stroke="black" points="1196,-669.5 1105,-669.5 1105,-616.5 1196,-616.5 1196,-669.5" />
<text font-family="Times New Roman,serif" font-size="14px" text-anchor="middle" x="1150.5" y="-654.3">gini = 0.0</text>
<text font-family="Times New Roman,serif" font-size="14px" text-anchor="middle" x="1150.5" y="-639.3">samples = 1</text>
<text font-family="Times New Roman,serif" font-size="14px" text-anchor="middle" x="1150.5" y="-624.3">value = [1, 0]</text>
</g>
<!-- 40&#45;&gt;41 -->
<g class="edge" id="edge41"><title>40-&gt;41</title>
<path fill="none" stroke="black" d="M 1150.5 -712.884 C 1150.5 -702.326 1150.5 -690.597 1150.5 -679.854" />
<polygon fill="black" stroke="black" points="1154,-679.52 1150.5,-669.52 1147,-679.52 1154,-679.52" />
</g>
<!-- 42 -->
<g class="node" id="node43"><title>42</title>
<polygon fill="none" stroke="black" points="1305,-669.5 1214,-669.5 1214,-616.5 1305,-616.5 1305,-669.5" />
<text font-family="Times New Roman,serif" font-size="14px" text-anchor="middle" x="1259.5" y="-654.3">gini = 0.0</text>
<text font-family="Times New Roman,serif" font-size="14px" text-anchor="middle" x="1259.5" y="-639.3">samples = 1</text>
<text font-family="Times New Roman,serif" font-size="14px" text-anchor="middle" x="1259.5" y="-624.3">value = [0, 1]</text>
</g>
<!-- 40&#45;&gt;42 -->
<g class="edge" id="edge42"><title>40-&gt;42</title>
<path fill="none" stroke="black" d="M 1185.89 -712.884 C 1198.35 -701.226 1212.33 -688.141 1224.74 -676.532" />
<polygon fill="black" stroke="black" points="1227.32,-678.908 1232.23,-669.52 1222.54,-673.797 1227.32,-678.908" />
</g>
</g>
</svg>